<svg width="45" height="26" viewBox="0 0 45 26" fill="none" xmlns="http://www.w3.org/2000/svg">
<circle cx="31.7202" cy="13" r="13" fill="#D69619"/>
<path d="M37.31 17.1577V19.5601H26.1716V17.6491L33.1604 9.22246H26.3172V6.82006H37.037V8.73106L30.0664 17.1577H37.31Z" fill="white"/>
<circle cx="13" cy="13" r="13" fill="#CC2424"/>
<path d="M17.1056 12.9353C17.8336 13.1658 18.4039 13.5541 18.8164 14.1001C19.229 14.6339 19.4352 15.2952 19.4352 16.0839C19.4352 17.2001 18.9984 18.0616 18.1248 18.6683C17.2634 19.2628 16.0015 19.5601 14.3392 19.5601H7.75083V6.82006H13.9752C15.5283 6.82006 16.7174 7.11733 17.5424 7.71186C18.3796 8.30639 18.7982 9.11326 18.7982 10.1325C18.7982 10.7513 18.6466 11.3033 18.3432 11.7887C18.052 12.274 17.6395 12.6562 17.1056 12.9353ZM10.681 9.04046V12.0435H13.6112C14.3392 12.0435 14.8913 11.9161 15.2674 11.6613C15.6436 11.4065 15.8316 11.0303 15.8316 10.5329C15.8316 10.0354 15.6436 9.66533 15.2674 9.42266C14.8913 9.16786 14.3392 9.04046 13.6112 9.04046H10.681ZM14.1208 17.3397C14.8974 17.3397 15.4798 17.2123 15.868 16.9575C16.2684 16.7027 16.4686 16.3083 16.4686 15.7745C16.4686 14.7189 15.686 14.1911 14.1208 14.1911H10.681V17.3397H14.1208Z" fill="white"/>
</svg>
