<svg width="25" height="28" viewBox="0 0 25 28" fill="none" xmlns="http://www.w3.org/2000/svg">
<path d="M22.3134 1.74011C21.8504 1.21779 21.2867 0.794415 20.656 0.495407C20.0254 0.1964 19.3408 0.0279274 18.6434 0.000106812C17.6397 -0.005476 16.6675 0.349373 15.9034 1.00011L2.47339 14.4601C0.613389 16.4601 -1.86662 21.1901 2.18338 25.2401C2.79494 25.8969 3.53243 26.424 4.3519 26.7899C5.17137 27.1559 6.0561 27.3532 6.9534 27.3701C9.15506 27.2707 11.2437 26.3669 12.8234 24.8301L22.2534 15.4001C22.3341 15.3263 22.3987 15.2368 22.4435 15.137C22.4882 15.0373 22.512 14.9294 22.5134 14.8201C22.5145 14.7045 22.492 14.5899 22.4473 14.4833C22.4026 14.3767 22.3366 14.2804 22.2534 14.2001C22.176 14.1206 22.0835 14.0574 21.9813 14.0142C21.8791 13.971 21.7693 13.9488 21.6584 13.9488C21.5474 13.9488 21.4376 13.971 21.3354 14.0142C21.2333 14.0574 21.1407 14.1206 21.0634 14.2001L11.6334 23.6301C10.3728 24.8198 8.7337 25.5279 7.00339 25.6301C6.32456 25.6225 5.6544 25.4766 5.03375 25.2016C4.41311 24.9265 3.85496 24.5279 3.39337 24.0301C-0.526628 20.0901 3.50339 15.8201 3.69339 15.6301L17.1334 2.18011C17.5559 1.8173 18.0965 1.62166 18.6534 1.63011C19.1328 1.66419 19.6006 1.79312 20.0298 2.00941C20.4589 2.22571 20.8408 2.52505 21.1534 2.89011C23.3734 5.10011 22.3534 6.89011 22.1534 7.19011L9.15338 20.1901C9.06908 20.2735 8.96914 20.3393 8.85931 20.384C8.74948 20.4286 8.63194 20.4511 8.5134 20.4501C8.1131 20.4102 7.73876 20.2337 7.4534 19.9501C7.27098 19.7696 7.12497 19.5558 7.02338 19.3201C6.95527 19.1498 6.9408 18.9628 6.9819 18.7841C7.02301 18.6054 7.11774 18.4435 7.25339 18.3201L16.9234 8.64011C17.0216 8.57384 17.1037 8.48633 17.1636 8.38403C17.2234 8.28173 17.2595 8.16727 17.2691 8.04915C17.2787 7.93102 17.2616 7.81225 17.2191 7.70163C17.1765 7.59101 17.1096 7.49138 17.0234 7.41011C16.9427 7.3186 16.8434 7.24532 16.7322 7.19511C16.621 7.14491 16.5004 7.11896 16.3784 7.11896C16.2564 7.11896 16.1357 7.14491 16.0245 7.19511C15.9133 7.24532 15.8141 7.3186 15.7334 7.41011L6.03339 17.1001C5.77014 17.3735 5.56545 17.6977 5.43182 18.0529C5.2982 18.4082 5.23844 18.7869 5.25623 19.166C5.27401 19.5451 5.36895 19.9166 5.53525 20.2578C5.70154 20.5989 5.93571 20.9026 6.22339 21.1501C6.83592 21.7684 7.66336 22.1266 8.53339 22.1501C8.86089 22.1578 9.18668 22.1009 9.49213 21.9825C9.79757 21.8641 10.0767 21.6866 10.3134 21.4601L23.3134 8.46011C24.2434 7.34011 25.1534 4.57012 22.3134 1.76012V1.74011Z" fill="#1959D6"/>
</svg>
