<svg width="26" height="26" viewBox="0 0 26 26" fill="none" xmlns="http://www.w3.org/2000/svg">
<path d="M4.67277 18.4176L7.61347 21.3822L1.21816 24.6508L4.67277 18.4176ZM25.9524 10.7403H26C25.13 11.5806 24.0718 12.2017 22.9132 12.552C21.7546 12.9024 20.5291 12.9718 19.3382 12.7546L15.8455 16.2227C16.4142 17.9003 16.5053 19.7026 16.1087 21.4288C15.7122 23.155 14.8436 24.7375 13.5996 26L8.32723 20.7361L5.27233 17.686L0 12.4601C1.26046 11.2149 2.84429 10.346 4.5729 9.95147C6.30151 9.55694 8.10615 9.65243 9.78331 10.2272L13.2665 6.73054C13.0492 5.56968 13.1082 4.37408 13.4388 3.24019C13.7695 2.1063 14.3624 1.06587 15.1698 0.20286C15.1698 0.20286 15.1698 0.145855 15.246 0.126852C16.1977 -0.490759 19.0527 1.20055 21.9078 4.03205C24.7628 6.86356 26.4663 9.79959 25.8382 10.7403H25.9524ZM21.5366 4.47864C19.3763 2.32175 17.2445 0.963007 16.7782 1.43809C16.3119 1.91318 17.6537 4.03206 19.8141 6.18895C21.9744 8.34583 24.0871 9.69507 24.5725 9.23899C25.0578 8.7829 23.6208 6.64502 21.5271 4.48813L21.5366 4.47864Z" fill="#CC2424"/>
</svg>
