<svg width="112" height="112" viewBox="0 0 112 112" fill="none" xmlns="http://www.w3.org/2000/svg">
<g filter="url(#filter0_d_1_9988)">
<rect x="11" y="9" width="90" height="90" rx="20" fill="#1959D6"/>
</g>
<path d="M76.892 28.6874C75.8984 27.5805 74.6884 26.6834 73.3348 26.0497C71.9812 25.4161 70.5118 25.0591 69.0149 25.0001C66.8608 24.9883 64.774 25.7403 63.134 27.1192L34.3087 55.6424C30.3165 59.8806 24.9936 69.9039 33.6863 78.4863C34.9989 79.8782 36.5818 80.9951 38.3406 81.7705C40.0995 82.546 41.9984 82.9641 43.9243 83C48.6498 82.7894 53.1328 80.8742 56.5233 77.6175L76.7632 57.6343C76.9364 57.478 77.0752 57.2882 77.1712 57.0769C77.2672 56.8655 77.3183 56.6369 77.3213 56.4053C77.3237 56.1603 77.2754 55.9175 77.1794 55.6916C77.0835 55.4657 76.9419 55.2614 76.7632 55.0914C76.5972 54.9229 76.3987 54.7889 76.1793 54.6975C75.96 54.606 75.7243 54.5588 75.4862 54.5588C75.2481 54.5588 75.0124 54.606 74.793 54.6975C74.5737 54.7889 74.3751 54.9229 74.2091 55.0914L53.9692 75.0745C51.2635 77.5956 47.7455 79.0961 44.0316 79.3127C42.5746 79.2965 41.1362 78.9875 39.8041 78.4046C38.472 77.8217 37.274 76.9771 36.2833 75.9222C27.8697 67.5729 36.5195 58.5244 36.9273 58.1217L65.774 29.6198C66.6808 28.851 67.8413 28.4364 69.0364 28.4543C70.0653 28.5265 71.0695 28.7997 71.9906 29.2581C72.9117 29.7164 73.7314 30.3508 74.4023 31.1243C79.1671 35.8076 76.9779 39.6008 76.5486 40.2365L48.6462 67.7848C48.4653 67.9615 48.2508 68.1011 48.0151 68.1956C47.7793 68.2902 47.527 68.3378 47.2726 68.3358C46.4134 68.2513 45.61 67.8771 44.9975 67.2763C44.606 66.8938 44.2926 66.4406 44.0745 65.9412C43.9283 65.5804 43.8973 65.1841 43.9855 64.8054C44.0737 64.4267 44.2771 64.0836 44.5682 63.8221L65.3232 43.3092C65.5341 43.1688 65.7104 42.9833 65.8388 42.7665C65.9672 42.5498 66.0446 42.3072 66.0652 42.0569C66.0858 41.8066 66.0492 41.5549 65.9579 41.3205C65.8666 41.086 65.723 40.8749 65.5379 40.7027C65.3647 40.5088 65.1516 40.3535 64.9129 40.2471C64.6743 40.1407 64.4154 40.0857 64.1535 40.0857C63.8916 40.0857 63.6327 40.1407 63.394 40.2471C63.1553 40.3535 62.9424 40.5088 62.7692 40.7027L41.9497 61.2368C41.3847 61.8161 40.9453 62.5032 40.6585 63.256C40.3717 64.0087 40.2435 64.8113 40.2816 65.6147C40.3198 66.4181 40.5236 67.2053 40.8805 67.9282C41.2374 68.6512 41.74 69.2946 42.3575 69.8192C43.6722 71.1294 45.4481 71.8885 47.3155 71.9383C48.0184 71.9547 48.7177 71.834 49.3733 71.583C50.0289 71.3321 50.6279 70.956 51.136 70.4761L79.0384 42.9278C81.0344 40.5544 82.9876 34.6845 76.892 28.7298V28.6874Z" fill="white"/>
<defs>
<filter id="filter0_d_1_9988" x="0" y="0" width="112" height="112" filterUnits="userSpaceOnUse" color-interpolation-filters="sRGB">
<feFlood flood-opacity="0" result="BackgroundImageFix"/>
<feColorMatrix in="SourceAlpha" type="matrix" values="0 0 0 0 0 0 0 0 0 0 0 0 0 0 0 0 0 0 127 0" result="hardAlpha"/>
<feMorphology radius="1" operator="dilate" in="SourceAlpha" result="effect1_dropShadow_1_9988"/>
<feOffset dy="2"/>
<feGaussianBlur stdDeviation="5"/>
<feComposite in2="hardAlpha" operator="out"/>
<feColorMatrix type="matrix" values="0 0 0 0 0 0 0 0 0 0 0 0 0 0 0 0 0 0 0.15 0"/>
<feBlend mode="normal" in2="BackgroundImageFix" result="effect1_dropShadow_1_9988"/>
<feBlend mode="normal" in="SourceGraphic" in2="effect1_dropShadow_1_9988" result="shape"/>
</filter>
</defs>
</svg>
